<svg width="20" height="20" viewBox="0 0 20 20" fill="none" xmlns="http://www.w3.org/2000/svg">
<path d="M1 17H0H1ZM3 1V0V1ZM18 17C18 17.2652 17.8946 17.5196 17.7071 17.7071L19.1213 19.1213C19.6839 18.5587 20 17.7957 20 17H18ZM17.7071 17.7071C17.5196 17.8946 17.2652 18 17 18V20C17.7957 20 18.5587 19.6839 19.1213 19.1213L17.7071 17.7071ZM17 18H3V20H17V18ZM3 18C2.73478 18 2.48043 17.8946 2.29289 17.7071L0.87868 19.1213C1.44129 19.6839 2.20435 20 3 20V18ZM2.29289 17.7071C2.10536 17.5196 2 17.2652 2 17H0C0 17.7957 0.31607 18.5587 0.87868 19.1213L2.29289 17.7071ZM2 17V3H0V17H2ZM2 3C2 2.73478 2.10536 2.48043 2.29289 2.29289L0.87868 0.87868C0.31607 1.44129 0 2.20435 0 3H2ZM2.29289 2.29289C2.48043 2.10536 2.73478 2 3 2V0C2.20435 0 1.44129 0.31607 0.87868 0.87868L2.29289 2.29289ZM3 2H17V0H3V2ZM20 3C20 2.20435 19.6839 1.44129 19.1213 0.87868L17.7071 2.29289C17.8946 2.48043 18 2.73478 18 3H20ZM19.1213 0.87868C18.5587 0.316071 17.7957 0 17 0V2C17.2652 2 17.5196 2.10536 17.7071 2.29289L19.1213 0.87868ZM18 3V17H20V3H18Z" fill="#454950"/>
</svg>
